<?xml version="1.0" encoding="us-ascii" standalone="no"?><svg xmlns="http://www.w3.org/2000/svg" xmlns:xlink="http://www.w3.org/1999/xlink" contentStyleType="text/css" height="528px" preserveAspectRatio="none" style="width:1230px;height:528px;background:#FFFFFF;" version="1.1" viewBox="0 0 1230 528" width="1230px" zoomAndPan="magnify"><defs/><g><!--cluster Frontend Angular G4IT--><g id="cluster_Frontend Angular G4IT"><path d="M56,6.602 L215,6.602 A3.75,3.75 0 0 1 217.5,9.102 L224.5,31.6699 L1065,31.6699 A2.5,2.5 0 0 1 1067.5,34.1699 L1067.5,519.102 A2.5,2.5 0 0 1 1065,521.602 L56,521.602 A2.5,2.5 0 0 1 53.5,519.102 L53.5,9.102 A2.5,2.5 0 0 1 56,6.602 " fill="none" style="stroke:#000000;stroke-width:1.5;"/><line style="stroke:#000000;stroke-width:1.5;" x1="53.5" x2="224.5" y1="31.6699" y2="31.6699"/><text fill="#000000" font-family="sans-serif" font-size="14" font-weight="bold" lengthAdjust="spacing" textLength="158" x="57.5" y="23.5679">Frontend Angular G4IT</text></g><!--cluster Layout (Vues)--><g id="cluster_Layout (Vues)"><path d="M80,176.602 L176,176.602 A3.75,3.75 0 0 1 178.5,179.102 L185.5,201.6699 L827,201.6699 A2.5,2.5 0 0 1 829.5,204.1699 L829.5,386.102 A2.5,2.5 0 0 1 827,388.602 L80,388.602 A2.5,2.5 0 0 1 77.5,386.102 L77.5,179.102 A2.5,2.5 0 0 1 80,176.602 " fill="none" style="stroke:#000000;stroke-width:1.5;"/><line style="stroke:#000000;stroke-width:1.5;" x1="77.5" x2="185.5" y1="201.6699" y2="201.6699"/><text fill="#000000" font-family="sans-serif" font-size="14" font-weight="bold" lengthAdjust="spacing" textLength="95" x="81.5" y="193.5679">Layout (Vues)</text></g><!--cluster Core--><g id="cluster_Core"><path d="M856,52.602 L889,52.602 A3.75,3.75 0 0 1 891.5,55.102 L898.5,77.6699 L1041,77.6699 A2.5,2.5 0 0 1 1043.5,80.1699 L1043.5,495.102 A2.5,2.5 0 0 1 1041,497.602 L856,497.602 A2.5,2.5 0 0 1 853.5,495.102 L853.5,55.102 A2.5,2.5 0 0 1 856,52.602 " fill="none" style="stroke:#000000;stroke-width:1.5;"/><line style="stroke:#000000;stroke-width:1.5;" x1="853.5" x2="898.5" y1="77.6699" y2="77.6699"/><text fill="#000000" font-family="sans-serif" font-size="14" font-weight="bold" lengthAdjust="spacing" textLength="32" x="857.5" y="69.5679">Core</text></g><!--cluster Backend G4IT--><g id="cluster_Backend G4IT"><path d="M1094,285.602 L1189,285.602 A3.75,3.75 0 0 1 1191.5,288.102 L1198.5,310.6699 L1221,310.6699 A2.5,2.5 0 0 1 1223.5,313.1699 L1223.5,386.102 A2.5,2.5 0 0 1 1221,388.602 L1094,388.602 A2.5,2.5 0 0 1 1091.5,386.102 L1091.5,288.102 A2.5,2.5 0 0 1 1094,285.602 " fill="none" style="stroke:#000000;stroke-width:1.5;"/><line style="stroke:#000000;stroke-width:1.5;" x1="1091.5" x2="1198.5" y1="310.6699" y2="310.6699"/><text fill="#000000" font-family="sans-serif" font-size="14" font-weight="bold" lengthAdjust="spacing" textLength="94" x="1095.5" y="302.5679">Backend G4IT</text></g><!--entity Digital Services Footprint--><g id="elem_Digital Services Footprint"><rect fill="#F1F1F1" height="49.0679" rx="2.5" ry="2.5" style="stroke:#181818;stroke-width:0.5;" width="208" x="293.5" y="214.602"/><rect fill="#F1F1F1" height="10" style="stroke:#181818;stroke-width:0.5;" width="15" x="481.5" y="219.602"/><rect fill="#F1F1F1" height="2" style="stroke:#181818;stroke-width:0.5;" width="4" x="479.5" y="221.602"/><rect fill="#F1F1F1" height="2" style="stroke:#181818;stroke-width:0.5;" width="4" x="479.5" y="225.602"/><text fill="#000000" font-family="sans-serif" font-size="14" lengthAdjust="spacing" textLength="168" x="308.5" y="249.5679">Digital Services Footprint</text></g><!--entity Dashboard--><g id="elem_Dashboard"><rect fill="#F1F1F1" height="49.0679" rx="2.5" ry="2.5" style="stroke:#181818;stroke-width:0.5;" width="114" x="93.5" y="323.602"/><rect fill="#F1F1F1" height="10" style="stroke:#181818;stroke-width:0.5;" width="15" x="187.5" y="328.602"/><rect fill="#F1F1F1" height="2" style="stroke:#181818;stroke-width:0.5;" width="4" x="185.5" y="330.602"/><rect fill="#F1F1F1" height="2" style="stroke:#181818;stroke-width:0.5;" width="4" x="185.5" y="334.602"/><text fill="#000000" font-family="sans-serif" font-size="14" lengthAdjust="spacing" textLength="74" x="108.5" y="358.5679">Dashboard</text></g><!--entity Servers--><g id="elem_Servers"><rect fill="#F1F1F1" height="49.0679" rx="2.5" ry="2.5" style="stroke:#181818;stroke-width:0.5;" width="90" x="242.5" y="323.602"/><rect fill="#F1F1F1" height="10" style="stroke:#181818;stroke-width:0.5;" width="15" x="312.5" y="328.602"/><rect fill="#F1F1F1" height="2" style="stroke:#181818;stroke-width:0.5;" width="4" x="310.5" y="330.602"/><rect fill="#F1F1F1" height="2" style="stroke:#181818;stroke-width:0.5;" width="4" x="310.5" y="334.602"/><text fill="#000000" font-family="sans-serif" font-size="14" lengthAdjust="spacing" textLength="50" x="257.5" y="358.5679">Servers</text></g><!--entity Networks--><g id="elem_Networks"><rect fill="#F1F1F1" height="49.0679" rx="2.5" ry="2.5" style="stroke:#181818;stroke-width:0.5;" width="103" x="368" y="323.602"/><rect fill="#F1F1F1" height="10" style="stroke:#181818;stroke-width:0.5;" width="15" x="451" y="328.602"/><rect fill="#F1F1F1" height="2" style="stroke:#181818;stroke-width:0.5;" width="4" x="449" y="330.602"/><rect fill="#F1F1F1" height="2" style="stroke:#181818;stroke-width:0.5;" width="4" x="449" y="334.602"/><text fill="#000000" font-family="sans-serif" font-size="14" lengthAdjust="spacing" textLength="63" x="383" y="358.5679">Networks</text></g><!--entity Terminals--><g id="elem_Terminals"><rect fill="#F1F1F1" height="49.0679" rx="2.5" ry="2.5" style="stroke:#181818;stroke-width:0.5;" width="107" x="506" y="323.602"/><rect fill="#F1F1F1" height="10" style="stroke:#181818;stroke-width:0.5;" width="15" x="593" y="328.602"/><rect fill="#F1F1F1" height="2" style="stroke:#181818;stroke-width:0.5;" width="4" x="591" y="330.602"/><rect fill="#F1F1F1" height="2" style="stroke:#181818;stroke-width:0.5;" width="4" x="591" y="334.602"/><text fill="#000000" font-family="sans-serif" font-size="14" lengthAdjust="spacing" textLength="67" x="521" y="358.5679">Terminals</text></g><!--entity Recommendations--><g id="elem_Recommendations"><rect fill="#F1F1F1" height="49.0679" rx="2.5" ry="2.5" style="stroke:#181818;stroke-width:0.5;" width="165" x="648" y="323.602"/><rect fill="#F1F1F1" height="10" style="stroke:#181818;stroke-width:0.5;" width="15" x="793" y="328.602"/><rect fill="#F1F1F1" height="2" style="stroke:#181818;stroke-width:0.5;" width="4" x="791" y="330.602"/><rect fill="#F1F1F1" height="2" style="stroke:#181818;stroke-width:0.5;" width="4" x="791" y="334.602"/><text fill="#000000" font-family="sans-serif" font-size="14" lengthAdjust="spacing" textLength="125" x="663" y="358.5679">Recommendations</text></g><!--entity Common--><g id="elem_Common"><rect fill="#F1F1F1" height="49.0679" rx="2.5" ry="2.5" style="stroke:#181818;stroke-width:0.5;" width="100" x="136.5" y="214.602"/><rect fill="#F1F1F1" height="10" style="stroke:#181818;stroke-width:0.5;" width="15" x="216.5" y="219.602"/><rect fill="#F1F1F1" height="2" style="stroke:#181818;stroke-width:0.5;" width="4" x="214.5" y="221.602"/><rect fill="#F1F1F1" height="2" style="stroke:#181818;stroke-width:0.5;" width="4" x="214.5" y="225.602"/><text fill="#000000" font-family="sans-serif" font-size="14" lengthAdjust="spacing" textLength="60" x="151.5" y="249.5679">Common</text></g><!--entity Business Services--><g id="elem_Business Services"><rect fill="#F1F1F1" height="49.0679" rx="2.5" ry="2.5" style="stroke:#181818;stroke-width:0.5;" width="159" x="869" y="323.602"/><rect fill="#F1F1F1" height="10" style="stroke:#181818;stroke-width:0.5;" width="15" x="1008" y="328.602"/><rect fill="#F1F1F1" height="2" style="stroke:#181818;stroke-width:0.5;" width="4" x="1006" y="330.602"/><rect fill="#F1F1F1" height="2" style="stroke:#181818;stroke-width:0.5;" width="4" x="1006" y="334.602"/><text fill="#000000" font-family="sans-serif" font-size="14" lengthAdjust="spacing" textLength="119" x="884" y="358.5679">Business Services</text></g><!--entity Data Services--><g id="elem_Data Services"><rect fill="#F1F1F1" height="49.0679" rx="2.5" ry="2.5" style="stroke:#181818;stroke-width:0.5;" width="130" x="890.5" y="214.602"/><rect fill="#F1F1F1" height="10" style="stroke:#181818;stroke-width:0.5;" width="15" x="1000.5" y="219.602"/><rect fill="#F1F1F1" height="2" style="stroke:#181818;stroke-width:0.5;" width="4" x="998.5" y="221.602"/><rect fill="#F1F1F1" height="2" style="stroke:#181818;stroke-width:0.5;" width="4" x="998.5" y="225.602"/><text fill="#000000" font-family="sans-serif" font-size="14" lengthAdjust="spacing" textLength="90" x="905.5" y="249.5679">Data Services</text></g><!--entity Stores--><g id="elem_Stores"><rect fill="#F1F1F1" height="49.0679" rx="2.5" ry="2.5" style="stroke:#181818;stroke-width:0.5;" width="82" x="869.5" y="432.602"/><rect fill="#F1F1F1" height="10" style="stroke:#181818;stroke-width:0.5;" width="15" x="931.5" y="437.602"/><rect fill="#F1F1F1" height="2" style="stroke:#181818;stroke-width:0.5;" width="4" x="929.5" y="439.602"/><rect fill="#F1F1F1" height="2" style="stroke:#181818;stroke-width:0.5;" width="4" x="929.5" y="443.602"/><text fill="#000000" font-family="sans-serif" font-size="14" lengthAdjust="spacing" textLength="42" x="884.5" y="467.5679">Stores</text></g><!--entity Interceptors--><g id="elem_Interceptors"><rect fill="#F1F1F1" height="49.0679" rx="2.5" ry="2.5" style="stroke:#181818;stroke-width:0.5;" width="123" x="894" y="90.602"/><rect fill="#F1F1F1" height="10" style="stroke:#181818;stroke-width:0.5;" width="15" x="997" y="95.602"/><rect fill="#F1F1F1" height="2" style="stroke:#181818;stroke-width:0.5;" width="4" x="995" y="97.602"/><rect fill="#F1F1F1" height="2" style="stroke:#181818;stroke-width:0.5;" width="4" x="995" y="101.602"/><text fill="#000000" font-family="sans-serif" font-size="14" lengthAdjust="spacing" textLength="83" x="909" y="125.5679">Interceptors</text></g><!--entity Backend--><g id="elem_Backend"><rect fill="#F1F1F1" height="49.0679" rx="2.5" ry="2.5" style="stroke:#181818;stroke-width:0.5;" width="99" x="1108" y="323.602"/><rect fill="#F1F1F1" height="10" style="stroke:#181818;stroke-width:0.5;" width="15" x="1187" y="328.602"/><rect fill="#F1F1F1" height="2" style="stroke:#181818;stroke-width:0.5;" width="4" x="1185" y="330.602"/><rect fill="#F1F1F1" height="2" style="stroke:#181818;stroke-width:0.5;" width="4" x="1185" y="334.602"/><text fill="#000000" font-family="sans-serif" font-size="14" lengthAdjust="spacing" textLength="59" x="1123" y="358.5679">API REST</text></g><!--entity User--><g id="elem_User"><ellipse cx="21.5" cy="84.102" fill="#F1F1F1" rx="8" ry="8" style="stroke:#181818;stroke-width:0.5;"/><path d="M21.5,92.102 L21.5,119.102 M8.5,100.102 L34.5,100.102 M21.5,119.102 L8.5,134.102 M21.5,119.102 L34.5,134.102 " fill="none" style="stroke:#181818;stroke-width:0.5;"/><text fill="#000000" font-family="sans-serif" font-size="14" lengthAdjust="spacing" textLength="31" x="6" y="150.5679">User</text></g><!--link User to Digital Services Footprint--><g id="link_User_Digital Services Footprint"><path d="M37.11,118.342 C75.1,124.062 175.06,140.772 254.5,168.602 C289.67,180.922 322.215,196.76 350.135,211.64 " fill="none" id="User-to-Digital Services Footprint" style="stroke:#181818;stroke-width:1.0;"/><polygon fill="#181818" points="355.43,214.462,349.3689,206.6991,351.0175,212.1104,345.6063,213.759,355.43,214.462" style="stroke:#181818;stroke-width:1.0;"/></g><!--link Digital Services Footprint to Dashboard--><g id="link_Digital Services Footprint_Dashboard"><path d="M293.42,253.492 C270.24,258.982 246.36,266.712 225.5,277.602 C203.94,288.852 188.0103,303.5271 174.1103,318.8571 " fill="none" id="Digital Services Footprint-to-Dashboard" style="stroke:#181818;stroke-width:1.0;"/><polygon fill="#181818" points="170.08,323.302,179.0886,319.3215,173.4386,319.5979,173.1621,313.9478,170.08,323.302" style="stroke:#181818;stroke-width:1.0;"/></g><!--link Digital Services Footprint to Servers--><g id="link_Digital Services Footprint_Servers"><path d="M366.56,263.612 C361.08,268.112 355.52,272.882 350.5,277.602 C335.18,291.982 323.2371,304.9857 311.2471,318.8357 " fill="none" id="Digital Services Footprint-to-Servers" style="stroke:#181818;stroke-width:1.0;"/><polygon fill="#181818" points="307.32,323.372,316.2348,319.1856,310.5926,319.5917,310.1864,313.9495,307.32,323.372" style="stroke:#181818;stroke-width:1.0;"/></g><!--link Digital Services Footprint to Networks--><g id="link_Digital Services Footprint_Networks"><path d="M402.38,263.852 C406.03,281.582 409.7827,299.8247 413.4227,317.5447 " fill="none" id="Digital Services Footprint-to-Networks" style="stroke:#181818;stroke-width:1.0;"/><polygon fill="#181818" points="414.63,323.422,416.7372,313.8012,413.6239,318.5242,408.9009,315.4109,414.63,323.422" style="stroke:#181818;stroke-width:1.0;"/></g><!--link Digital Services Footprint to Terminals--><g id="link_Digital Services Footprint_Terminals"><path d="M463.67,263.812 C472.29,267.922 480.8,272.522 488.5,277.602 C507.8,290.322 522.3247,304.3226 535.6147,319.0126 " fill="none" id="Digital Services Footprint-to-Terminals" style="stroke:#181818;stroke-width:1.0;"/><polygon fill="#181818" points="539.64,323.462,536.5683,314.1044,536.2856,319.7542,530.6358,319.4715,539.64,323.462" style="stroke:#181818;stroke-width:1.0;"/></g><!--link Digital Services Footprint to Recommendations--><g id="link_Digital Services Footprint_Recommendations"><path d="M501.68,246.832 C542.91,252.042 590.03,261.272 630.5,277.602 C657.56,288.522 679.8432,304.0785 698.9332,319.5885 " fill="none" id="Digital Services Footprint-to-Recommendations" style="stroke:#181818;stroke-width:1.0;"/><polygon fill="#181818" points="703.59,323.372,699.1272,314.5923,699.7094,320.2191,694.0826,320.8013,703.59,323.372" style="stroke:#181818;stroke-width:1.0;"/></g><!--link Dashboard to Stores--><g id="link_Dashboard_Stores"><path d="M180.54,372.782 C193.62,381.822 209.58,391.232 225.5,396.602 C345.95,437.272 734.1724,451.2837 863.2124,454.9037 " fill="none" id="Dashboard-to-Stores" style="stroke:#181818;stroke-width:1.0;"/><polygon fill="#181818" points="869.21,455.072,860.3257,450.8212,864.212,454.9318,860.1014,458.818,869.21,455.072" style="stroke:#181818;stroke-width:1.0;"/></g><!--link Servers to Stores--><g id="link_Servers_Stores"><path d="M312.22,372.682 C323.13,381.692 336.61,391.122 350.5,396.602 C445.19,433.982 750.4051,449.6754 863.2051,454.3154 " fill="none" id="Servers-to-Stores" style="stroke:#181818;stroke-width:1.0;"/><polygon fill="#181818" points="869.2,454.562,860.372,450.1955,864.2042,454.3565,860.0432,458.1887,869.2,454.562" style="stroke:#181818;stroke-width:1.0;"/></g><!--link Networks to Stores--><g id="link_Networks_Stores"><path d="M447.35,372.652 C459.3,381.552 473.86,390.902 488.5,396.602 C620.87,448.172 786.0602,455.8039 863.3802,456.4239 " fill="none" id="Networks-to-Stores" style="stroke:#181818;stroke-width:1.0;"/><polygon fill="#181818" points="869.38,456.472,860.4124,452.3999,864.3802,456.4319,860.3482,460.3997,869.38,456.472" style="stroke:#181818;stroke-width:1.0;"/></g><!--link Terminals to Stores--><g id="link_Terminals_Stores"><path d="M589.15,372.612 C601.36,381.292 616.02,390.492 630.5,396.602 C711.08,430.622 807.2474,445.3228 863.2074,451.6028 " fill="none" id="Terminals-to-Stores" style="stroke:#181818;stroke-width:1.0;"/><polygon fill="#181818" points="869.17,452.272,860.6722,447.2932,864.2012,451.7144,859.7801,455.2433,869.17,452.272" style="stroke:#181818;stroke-width:1.0;"/></g><!--link Recommendations to Stores--><g id="link_Recommendations_Stores"><path d="M770.45,372.852 C800.28,390.582 835.7029,411.6354 865.5029,429.3554 " fill="none" id="Recommendations-to-Stores" style="stroke:#181818;stroke-width:1.0;"/><polygon fill="#181818" points="870.66,432.422,864.9687,424.384,866.3624,429.8665,860.8799,431.2602,870.66,432.422" style="stroke:#181818;stroke-width:1.0;"/></g><!--link Business Services to Stores--><g id="link_Business Services_Stores"><path d="M940.07,372.852 C933.77,390.582 927.2071,409.0476 920.9171,426.7676 " fill="none" id="Business Services-to-Stores" style="stroke:#181818;stroke-width:1.0;"/><polygon fill="#181818" points="918.91,432.422,925.6902,425.2785,920.5826,427.71,918.1511,422.6024,918.91,432.422" style="stroke:#181818;stroke-width:1.0;"/></g><!--link Data Services to Business Services--><g id="link_Data Services_Business Services"><path d="M953.95,263.852 C952.79,281.582 951.6019,299.7148 950.4419,317.4348 " fill="none" id="Data Services-to-Business Services" style="stroke:#181818;stroke-width:1.0;"/><polygon fill="#181818" points="950.05,323.422,954.6294,314.7025,950.3766,318.4327,946.6464,314.1799,950.05,323.422" style="stroke:#181818;stroke-width:1.0;"/></g><!--link Interceptors to Data Services--><g id="link_Interceptors_Data Services"><path d="M955.5,139.622 C955.5,161.092 955.5,186.662 955.5,208.232 " fill="none" id="Interceptors-to-Data Services" style="stroke:#181818;stroke-width:1.0;"/><polygon fill="#181818" points="955.5,214.232,959.5,205.232,955.5,209.232,951.5,205.232,955.5,214.232" style="stroke:#181818;stroke-width:1.0;"/></g><!--link Data Services to Backend--><g id="link_Data Services_Backend"><path d="M1014.27,263.742 C1024.14,268.112 1034.2,272.812 1043.5,277.602 C1070.5,291.492 1094.667,306.1267 1116.767,320.2767 " fill="none" id="Data Services-to-Backend" style="stroke:#181818;stroke-width:1.0;"/><polygon fill="#181818" points="1121.82,323.512,1116.3974,315.2904,1117.6092,320.8159,1112.0836,322.0277,1121.82,323.512" style="stroke:#181818;stroke-width:1.0;"/></g><!--SRC=[XL91JiCm4Bpx5QkSuD0RPwIsK1G98TGKBeZ3agw2rSIErWu8eVuTHxMTnaHDJfcTYJsP7IojPdWnn4AqM1wm8iWsh9KbjOUbgheQ6Hvkybq6lq80HD4Z_kZEmjLhH-Qw9y4zRtUoaXPhA8Y_P4a6DbhRbgMoxrw0vlD38-yzxeN4ngCdij-Q3m7kY1kfi0vuIwLk6kSChTGgJDTkfbKFZYE7QyqKZQqw8nKP4vr5FnRJMU4oYI1tKN19hPkPqnt78QcLU-c32W41E8EjLgGiPCld7BRtXIFGW5UwZqMVDYmMjvVJkaJwhuSevyKnvtdfi8HvxTc6viN_rYVE_i7RzD57lyauUalcWu-4IEySqsAY5ya1uuASo8aoZNiI5ZJgrkHPeHT_]--></g></svg>