<svg width="175" height="175" viewBox="0 0 175 175" fill="none" xmlns="http://www.w3.org/2000/svg">
<path d="M89.1105 42.1669C89.1105 39.1464 87.9108 36.2489 85.7747 34.113C83.6385 31.9772 80.7407 30.7776 77.7197 30.7776C74.699 30.7777 71.8018 31.9773 69.6658 34.113C67.5297 36.2489 66.3299 39.1464 66.3299 42.1669C66.33 45.8886 68.1103 49.1931 70.8899 51.2809C73.4901 53.2344 74.0146 56.9255 72.0613 59.5256C70.1076 62.1259 66.4152 62.6503 63.8146 60.6969C59.932 57.7804 56.9881 53.6595 55.5421 48.8848C54.6441 49.1982 53.7743 49.5984 52.9463 50.0819C50.6731 51.4095 48.7933 53.3173 47.5006 55.6103C46.2079 57.9034 45.5482 60.4994 45.5892 63.1313C45.6303 65.7633 46.3709 68.3375 47.7345 70.5891C48.7322 72.2365 48.8617 74.268 48.0805 76.0284C47.2992 77.7887 45.706 79.0558 43.8149 79.4213C40.4272 80.0758 37.3724 81.8893 35.1762 84.5501C32.98 87.2108 31.779 90.5535 31.779 94.0034C31.779 97.4532 32.9801 100.796 35.1762 103.457C36.6156 105.201 38.4253 106.577 40.4541 107.505C43.4381 104.113 47.2549 101.515 51.5631 99.9909L51.8516 99.8969C54.8378 99.0075 58.0289 100.607 59.0802 103.577C60.1652 106.643 58.5593 110.008 55.4932 111.093L54.8922 111.321C51.9164 112.521 49.4034 114.656 47.7383 117.412L47.7364 117.416C46.3739 119.667 45.6345 122.241 45.594 124.872C45.5536 127.504 46.2129 130.098 47.5054 132.391C48.798 134.683 50.6775 136.591 52.9501 137.918C55.2228 139.245 57.8075 139.945 60.4395 139.945C62.0015 139.945 63.4999 140.565 64.6045 141.67C65.7091 142.774 66.3299 144.272 66.3299 145.834C66.33 148.854 67.5297 151.751 69.6658 153.887C71.8018 156.023 74.6989 157.222 77.7197 157.222C80.7407 157.222 83.6385 156.023 85.7747 153.887C87.9106 151.751 89.1104 148.854 89.1105 145.834V42.1669ZM170 94.0034C170 100.189 167.846 106.183 163.908 110.954C161.503 113.868 158.522 116.213 155.183 117.866C155.808 120.079 156.148 122.372 156.184 124.691C156.257 129.41 155.073 134.064 152.755 138.175C150.437 142.286 147.067 145.708 142.991 148.088C140.446 149.575 137.683 150.621 134.817 151.198C133.832 155.335 131.72 159.158 128.663 162.215C124.318 166.56 118.425 169 112.28 169C106.135 169 100.241 166.56 95.8963 162.215C95.5872 161.906 95.2896 161.588 95 161.263C94.7104 161.588 94.4128 161.906 94.1037 162.215C89.7586 166.56 83.8647 169 77.7197 169C71.575 169 65.6817 166.56 61.3367 162.215C58.2799 159.159 56.1668 155.336 55.1817 151.199C52.3164 150.622 49.5535 149.575 47.0089 148.088C42.933 145.708 39.564 142.286 37.2458 138.175C34.9276 134.064 33.7435 129.41 33.816 124.691C33.8516 122.372 34.1909 120.079 34.8158 117.866C31.477 116.213 28.497 113.868 26.0918 110.954C22.1539 106.183 20 100.189 20 94.0034C20.0001 87.8176 22.154 81.8248 26.0918 77.0539C28.4967 74.1402 31.4755 71.7936 34.8138 70.1406C34.1884 67.9281 33.8483 65.6344 33.8121 63.3154C33.7385 58.595 34.9215 53.9395 37.24 49.827C39.5585 45.7145 42.929 42.2926 47.006 39.9117C49.5515 38.4251 52.3153 37.3773 55.1817 36.8005C56.1669 32.6637 58.2802 28.8411 61.3367 25.7849C65.6817 21.4405 71.575 19.0001 77.7197 19C83.8646 19 89.7586 21.4404 94.1037 25.7849C94.4126 26.0938 94.7106 26.4117 95 26.7357C95.2894 26.4117 95.5874 26.0938 95.8963 25.7849C100.241 21.4404 106.135 19 112.28 19C118.425 19.0001 124.318 21.4405 128.663 25.7849C131.72 28.841 133.832 32.6638 134.817 36.8005C137.684 37.3772 140.448 38.425 142.994 39.9117C147.071 42.2926 150.442 45.7145 152.76 49.827C155.078 53.9395 156.262 58.595 156.188 63.3154C156.152 65.6345 155.811 67.928 155.185 70.1406C158.524 71.7936 161.503 74.14 163.908 77.0539C167.846 81.8248 170 87.8176 170 94.0034ZM100.889 145.834C100.89 148.854 102.089 151.751 104.225 153.887C106.361 156.023 109.259 157.222 112.28 157.222C115.301 157.222 118.198 156.023 120.334 153.887C122.47 151.751 123.67 148.854 123.67 145.834C123.67 142.112 121.89 138.808 119.11 136.72C116.51 134.767 115.985 131.075 117.939 128.474C119.892 125.874 123.585 125.35 126.185 127.303C130.067 130.219 133.011 134.339 134.457 139.113C135.354 138.8 136.223 138.401 137.05 137.918C139.323 136.591 141.202 134.683 142.495 132.391C143.787 130.098 144.446 127.504 144.406 124.872C144.366 122.241 143.626 119.667 142.264 117.416C141.267 115.768 141.139 113.737 141.92 111.977C142.702 110.217 144.295 108.951 146.186 108.585C149.574 107.931 152.628 106.117 154.824 103.457C157.02 100.796 158.221 97.4533 158.221 94.0034C158.221 90.5535 157.02 87.2108 154.824 84.5501C153.383 82.805 151.572 81.4278 149.542 80.4996C146.557 83.8878 142.741 86.4829 138.434 88.0044C135.367 89.0877 132.002 87.4795 130.919 84.413C129.836 81.3467 131.443 77.9832 134.51 76.8996C137.746 75.7563 140.487 73.5262 142.265 70.5901L142.265 70.5891C143.629 68.3375 144.37 65.7633 144.411 63.1313C144.452 60.4994 143.792 57.9034 142.499 55.6103C141.207 53.3173 139.327 51.4095 137.054 50.0819C134.78 48.7543 132.194 48.055 129.561 48.0557C127.999 48.0561 126.501 47.4356 125.396 46.3315C124.292 45.2271 123.67 43.7289 123.67 42.1669C123.67 39.1464 122.47 36.2489 120.334 34.113C118.198 31.9773 115.301 30.7776 112.28 30.7776C109.259 30.7776 106.361 31.9771 104.225 34.113C102.089 36.2489 100.889 39.1464 100.889 42.1669V145.834Z" fill="#9EA09F"/>
</svg>
