<svg xmlns="http://www.w3.org/2000/svg" fill="none" viewBox="19.944 21.435 48 44.362" width="48" height="44.362"><path fill-rule="evenodd" clip-rule="evenodd" d="M43.802 23.309a0.64 0.64 0 0 0 -0.23 0h-0.003c-0.013 0.002 -0.134 0.022 -0.424 0.4 -0.296 0.384 -0.635 0.96 -1.149 1.83l-2.642 4.49 -0.757 -0.445 0.757 0.445a42.08 42.08 0 0 0 -4.192 9.779c-1.456 5.093 2.368 10.162 7.664 10.162h1.72c5.296 0 9.118 -5.07 7.664 -10.162a42.08 42.08 0 0 0 -4.192 -9.779l0.803 -0.472 -0.803 0.472 -2.64 -4.488c-0.514 -0.872 -0.854 -1.448 -1.149 -1.83 -0.29 -0.376 -0.411 -0.397 -0.424 -0.398zm0.33 -1.834a2.56 2.56 0 0 0 -0.891 0c-0.704 0.125 -1.192 0.598 -1.574 1.096 -0.376 0.488 -0.776 1.168 -1.248 1.973l-0.03 0.051 -2.642 4.488a44 44 0 0 0 -4.376 10.213c-1.797 6.282 2.922 12.538 9.456 12.538h1.72c6.536 0 11.251 -6.256 9.456 -12.538a44 44 0 0 0 -4.376 -10.213l-2.642 -4.488 -0.03 -0.051c-0.474 -0.805 -0.872 -1.483 -1.248 -1.971 -0.384 -0.498 -0.869 -0.971 -1.573 -1.096" fill="#1c211d"/><path fill-rule="evenodd" clip-rule="evenodd" d="M40.386 42.906a0.928 0.928 0 0 1 1.141 0.659 2.234 2.234 0 0 0 2.158 1.654 0.931 0.931 0 0 1 0 1.864 4.096 4.096 0 0 1 -3.958 -3.037 0.928 0.928 0 0 1 0.659 -1.141" fill="#1c211d"/><path fill-rule="evenodd" clip-rule="evenodd" d="M33.923 41.702c-8.146 1.99 -13.792 6.334 -13.792 11.374 0 6.922 10.661 12.534 23.814 12.534S67.76 60 67.76 53.077c0 -5.146 -5.891 -9.568 -14.318 -11.498q0.034 0.648 -0.03 1.28c2.562 0.606 4.859 1.448 6.79 2.464 4.154 2.186 6.306 4.989 6.306 7.754 0 2.763 -2.152 5.566 -6.306 7.754 -4.096 2.155 -9.842 3.526 -16.256 3.526s-12.16 -1.371 -16.256 -3.526c-4.154 -2.187 -6.306 -4.99 -6.306 -7.754s2.152 -5.568 6.306 -7.754c1.802 -0.949 3.923 -1.746 6.282 -2.341a9.6 9.6 0 0 1 -0.048 -1.28m0.816 4.024c-4.28 1.469 -7.088 3.931 -7.088 6.723 0 4.499 7.296 8.147 16.294 8.147s16.294 -3.648 16.294 -8.147c0 -2.888 -3.006 -5.426 -7.539 -6.872q-0.259 0.586 -0.597 1.126c1.027 0.317 1.968 0.69 2.803 1.107 2.816 1.408 4.08 3.12 4.08 4.64s-1.264 3.232 -4.08 4.64c-2.741 1.37 -6.614 2.254 -10.962 2.254s-8.221 -0.885 -10.962 -2.256c-2.816 -1.408 -4.08 -3.12 -4.08 -4.64s1.264 -3.232 4.08 -4.64a17.6 17.6 0 0 1 2.371 -0.968q-0.347 -0.534 -0.616 -1.115m2.432 3.15c-1.626 0.845 -2.626 1.994 -2.626 3.258 0 2.597 4.208 4.701 9.402 4.701s9.402 -2.104 9.402 -4.701c0 -1.349 -1.136 -2.565 -2.955 -3.421q-0.547 0.477 -1.168 0.864 0.43 0.165 0.81 0.354c1.568 0.784 2.061 1.635 2.061 2.203 0 0.566 -0.493 1.418 -2.061 2.203 -1.493 0.746 -3.643 1.245 -6.086 1.245s-4.594 -0.498 -6.086 -1.245c-1.568 -0.782 -2.061 -1.634 -2.061 -2.202s0.493 -1.419 2.061 -2.203q0.238 -0.12 0.498 -0.23a8.96 8.96 0 0 1 -1.186 -0.827" fill="#1c211d"/><path fill-rule="evenodd" clip-rule="evenodd" d="m53.243 41.342 0.24 0.054c4.232 0.97 7.84 2.566 10.394 4.579s4.07 4.451 4.07 7.101c0 3.565 -2.742 6.747 -7.075 9.029 -4.341 2.285 -10.326 3.693 -16.926 3.693s-12.586 -1.408 -16.926 -3.693c-4.333 -2.28 -7.075 -5.462 -7.075 -9.029 0 -2.595 1.454 -4.987 3.912 -6.974s5.933 -3.581 10.024 -4.581l0.24 -0.059 -0.008 0.246q-0.022 0.635 0.046 1.253l0.018 0.162 -0.157 0.04c-2.346 0.592 -4.453 1.384 -6.242 2.325 -4.131 2.173 -6.206 4.928 -6.206 7.589s2.075 5.414 6.206 7.59c4.064 2.138 9.778 3.504 16.17 3.504s12.106 -1.366 16.17 -3.504c4.131 -2.174 6.206 -4.928 6.206 -7.59s-2.075 -5.414 -6.206 -7.589c-1.915 -1.008 -4.197 -1.845 -6.746 -2.448l-0.158 -0.037 0.014 -0.163a8.64 8.64 0 0 0 0.03 -1.253zm0.394 0.472q0.011 0.454 -0.026 0.899c2.51 0.606 4.77 1.44 6.677 2.443 4.178 2.2 6.405 5.051 6.405 7.918s-2.227 5.72 -6.405 7.92c-4.128 2.171 -9.904 3.549 -16.342 3.549s-12.214 -1.376 -16.342 -3.549c-4.178 -2.198 -6.405 -5.051 -6.405 -7.918 0 -2.869 2.227 -5.72 6.405 -7.92 1.778 -0.934 3.859 -1.722 6.168 -2.315q-0.042 -0.445 -0.038 -0.899c-3.952 0.994 -7.286 2.544 -9.643 4.45 -2.403 1.942 -3.773 4.242 -3.773 6.685 0 3.358 2.589 6.442 6.875 8.699 4.278 2.251 10.202 3.65 16.754 3.65s12.475 -1.398 16.754 -3.65c4.286 -2.256 6.875 -5.341 6.875 -8.699 0 -2.496 -1.429 -4.838 -3.928 -6.808 -2.451 -1.931 -5.917 -3.488 -10.008 -4.453m-1.04 3.534 0.16 0.051c2.283 0.728 4.194 1.734 5.538 2.934 1.344 1.198 2.133 2.602 2.133 4.115 0 2.358 -1.907 4.443 -4.877 5.928 -2.979 1.491 -7.083 2.406 -11.605 2.406s-8.626 -0.915 -11.605 -2.406c-2.968 -1.483 -4.875 -3.57 -4.875 -5.928 0 -1.462 0.736 -2.822 1.998 -3.995 1.261 -1.171 3.059 -2.165 5.216 -2.904l0.158 -0.054 0.07 0.152q0.262 0.57 0.603 1.093l0.131 0.202 -0.23 0.077a17.6 17.6 0 0 0 -2.346 0.958c-2.795 1.397 -3.978 3.062 -3.978 4.474s1.182 3.075 3.978 4.474c2.709 1.355 6.554 2.234 10.878 2.234s8.168 -0.88 10.878 -2.234c2.795 -1.398 3.978 -3.062 3.978 -4.474s-1.182 -3.077 -3.978 -4.474a18.24 18.24 0 0 0 -2.774 -1.094l-0.232 -0.072 0.128 -0.206q0.33 -0.53 0.584 -1.104zm0.203 0.456q-0.189 0.406 -0.414 0.792c0.947 0.302 1.821 0.654 2.605 1.046 2.837 1.418 4.182 3.179 4.182 4.806s-1.347 3.389 -4.182 4.806c-2.771 1.386 -6.675 2.274 -11.045 2.274s-8.274 -0.888 -11.045 -2.274c-2.837 -1.418 -4.182 -3.179 -4.182 -4.806s1.347 -3.389 4.182 -4.806a17.6 17.6 0 0 1 2.171 -0.902q-0.234 -0.381 -0.429 -0.782c-2.053 0.722 -3.742 1.674 -4.925 2.771 -1.213 1.125 -1.88 2.392 -1.88 3.72 0 2.142 1.741 4.131 4.669 5.595 2.917 1.459 6.962 2.366 11.438 2.366s8.522 -0.907 11.438 -2.366c2.928 -1.464 4.669 -3.453 4.669 -5.594 0 -1.374 -0.715 -2.685 -2.008 -3.838 -1.262 -1.126 -3.066 -2.093 -5.245 -2.806m-2.44 2.69 0.11 0.053c1.837 0.866 3.061 2.128 3.061 3.59 0 1.406 -1.136 2.63 -2.858 3.49 -1.731 0.866 -4.112 1.397 -6.73 1.397s-4.998 -0.53 -6.731 -1.397c-1.72 -0.861 -2.856 -2.083 -2.856 -3.49 0 -1.371 1.078 -2.568 2.726 -3.424l0.109 -0.056 0.096 0.078q0.544 0.45 1.162 0.81l0.322 0.186 -0.342 0.146q-0.254 0.109 -0.488 0.224c-1.546 0.773 -1.958 1.576 -1.958 2.035s0.411 1.262 1.958 2.037c1.461 0.731 3.582 1.226 6.003 1.226s4.541 -0.493 6.003 -1.226c1.546 -0.773 1.958 -1.576 1.958 -2.035s-0.411 -1.262 -1.958 -2.037a9.6 9.6 0 0 0 -0.792 -0.347l-0.35 -0.134 0.318 -0.197a8.96 8.96 0 0 0 1.144 -0.845zm0.059 0.442q-0.381 0.323 -0.795 0.605 0.254 0.109 0.491 0.227c1.589 0.795 2.163 1.694 2.163 2.37s-0.574 1.574 -2.163 2.368c-1.523 0.762 -3.704 1.264 -6.17 1.264s-4.646 -0.502 -6.17 -1.264c-1.589 -0.795 -2.163 -1.694 -2.163 -2.368s0.574 -1.574 2.163 -2.37l0.182 -0.088a9.6 9.6 0 0 1 -0.808 -0.579c-1.539 0.827 -2.418 1.904 -2.418 3.037 0 1.189 0.97 2.315 2.651 3.157 1.67 0.835 3.99 1.357 6.565 1.357s4.894 -0.522 6.565 -1.357c1.675 -0.845 2.645 -1.973 2.645 -3.162 0 -1.211 -1.005 -2.357 -2.739 -3.2" fill="#1c211d"/></svg>