<svg width="25" height="24" viewBox="0 0 25 24" fill="none" xmlns="http://www.w3.org/2000/svg">
<path d="M7 12C7 12.1989 6.92098 12.3897 6.78033 12.5303C6.63968 12.671 6.44891 12.75 6.25 12.75C6.05109 12.75 5.86032 12.671 5.71967 12.5303C5.57902 12.3897 5.5 12.1989 5.5 12C5.5 11.8011 5.57902 11.6103 5.71967 11.4697C5.86032 11.329 6.05109 11.25 6.25 11.25C6.44891 11.25 6.63968 11.329 6.78033 11.4697C6.92098 11.6103 7 11.8011 7 12ZM13 12C13 12.1989 12.921 12.3897 12.7803 12.5303C12.6397 12.671 12.4489 12.75 12.25 12.75C12.0511 12.75 11.8603 12.671 11.7197 12.5303C11.579 12.3897 11.5 12.1989 11.5 12C11.5 11.8011 11.579 11.6103 11.7197 11.4697C11.8603 11.329 12.0511 11.25 12.25 11.25C12.4489 11.25 12.6397 11.329 12.7803 11.4697C12.921 11.6103 13 11.8011 13 12ZM19 12C19 12.1989 18.921 12.3897 18.7803 12.5303C18.6397 12.671 18.4489 12.75 18.25 12.75C18.0511 12.75 17.8603 12.671 17.7197 12.5303C17.579 12.3897 17.5 12.1989 17.5 12C17.5 11.8011 17.579 11.6103 17.7197 11.4697C17.8603 11.329 18.0511 11.25 18.25 11.25C18.4489 11.25 18.6397 11.329 18.7803 11.4697C18.921 11.6103 19 11.8011 19 12Z" stroke="white" stroke-width="1.5" stroke-linecap="round" stroke-linejoin="round"/>
</svg>
