<svg width="118" height="118" viewBox="0 0 118 118" fill="none" xmlns="http://www.w3.org/2000/svg">
<path fill-rule="evenodd" clip-rule="evenodd" d="M58.7481 31.2639C58.6454 31.2454 58.5401 31.2454 58.4374 31.2639L58.4332 31.2647C58.433 31.2647 58.4328 31.2648 58.4325 31.2648C58.416 31.2675 58.2536 31.2946 57.8648 31.7997C57.4689 32.314 57.0117 33.0867 56.3245 34.2553L56.3244 34.2554L52.7833 40.2761L51.7688 39.6794L52.7833 40.2761C50.3621 44.3928 48.4728 48.8001 47.1609 53.3923L47.1609 53.3925C45.2089 60.2216 50.3369 67.0206 57.44 67.0206H59.7455C66.8505 67.0206 71.9767 60.2218 70.0246 53.3925L70.0246 53.3923C68.7127 48.8001 66.8235 44.3928 64.4022 40.2761L65.4796 39.6424L64.4022 40.2761L60.8611 34.2554L60.8611 34.2553C60.1738 33.0867 59.7166 32.314 59.3207 31.7997C58.932 31.2946 58.7695 31.2675 58.753 31.2648C58.7528 31.2648 58.7525 31.2647 58.7523 31.2647L58.7481 31.2639L58.7481 31.2639ZM59.1911 28.8035C58.7961 28.7323 58.3916 28.7322 57.9965 28.8031C57.0508 28.9709 56.3979 29.6066 55.8836 30.2749C55.3804 30.9287 54.8445 31.8401 54.2099 32.9194L54.1695 32.988L54.1695 32.9881L50.6284 39.0087C48.1 43.3077 46.1271 47.91 44.7571 52.7056C42.3486 61.1318 48.676 69.5206 57.44 69.5206H59.7455C68.5117 69.5206 74.8368 61.1318 72.4284 52.7056C71.0584 47.91 69.0856 43.3077 66.5571 39.0087L63.016 32.9881L63.016 32.988L62.9757 32.9195C62.341 31.8401 61.8051 30.9287 61.3019 30.2749C60.7879 29.6071 60.1357 28.9718 59.1911 28.8035Z" fill="#1C211D"/>
<path fill-rule="evenodd" clip-rule="evenodd" d="M54.1668 57.5481C54.8336 57.3693 55.5191 57.7649 55.6979 58.4317C55.8687 59.0687 56.2449 59.6315 56.7682 60.0329C57.2914 60.4342 57.9325 60.6517 58.592 60.6517C59.2823 60.6516 59.842 61.2112 59.8421 61.9015C59.8422 62.5919 59.2826 63.1516 58.5923 63.1517C57.3825 63.1518 56.2065 62.7528 55.2466 62.0165C54.2867 61.2802 53.5965 60.2477 53.2832 59.0792C53.1044 58.4124 53.5 57.7269 54.1668 57.5481Z" fill="#1C211D"/>
<path fill-rule="evenodd" clip-rule="evenodd" d="M45.4998 55.9337C34.5751 58.6049 27 64.4311 27 71.1886C27 80.4733 41.3009 88.0001 58.942 88.0001C76.5831 88.0001 90.8841 80.4733 90.8841 71.1886C90.8841 64.2867 82.9818 58.3563 71.6794 55.7668C71.7082 56.3459 71.6941 56.9193 71.6396 57.4837C75.0746 58.2966 78.1558 59.4257 80.7455 60.7887C86.3169 63.721 89.2029 67.4809 89.2029 71.1886C89.2029 74.8962 86.3169 78.6561 80.7455 81.5884C75.2517 84.4799 67.5458 86.3189 58.942 86.3189C50.3382 86.3189 42.6324 84.4799 37.1386 81.5884C31.5672 78.6561 28.6812 74.8962 28.6812 71.1886C28.6812 67.4809 31.5672 63.721 37.1386 60.7887C39.5561 59.5164 42.4019 58.4478 45.564 57.65C45.5015 57.0862 45.4792 56.5129 45.4998 55.9337ZM46.5938 61.3306C40.8527 63.2998 37.087 66.604 37.087 70.348C37.087 76.383 46.8718 81.2755 58.942 81.2755C71.0122 81.2755 80.7971 76.383 80.7971 70.348C80.7971 66.4737 76.7646 63.0703 70.6838 61.1299C70.453 61.6529 70.1854 62.1579 69.884 62.641C71.2619 63.0649 72.5236 63.5645 73.6441 64.1247C77.4203 66.0129 79.1159 68.3102 79.1159 70.348C79.1159 72.3857 77.4203 74.6831 73.6441 76.5712C69.9683 78.409 64.7727 79.5943 58.942 79.5943C53.1113 79.5943 47.9157 78.409 44.24 76.5712C40.4637 74.6831 38.7681 72.3857 38.7681 70.348C38.7681 68.3102 40.4637 66.0129 44.24 64.1247C45.2015 63.644 46.267 63.2079 47.4207 62.826C47.1106 62.3485 46.834 61.8488 46.5938 61.3306ZM49.8555 65.5569C47.6744 66.6902 46.3333 68.2307 46.3333 69.9277C46.3333 73.4095 51.9784 76.232 58.942 76.232C65.9056 76.232 71.5507 73.4095 71.5507 69.9277C71.5507 68.1192 70.0278 66.4886 67.5882 65.339C67.1003 65.7653 66.5766 66.1534 66.0212 66.4975C66.4062 66.6456 66.7685 66.8049 67.1059 66.9735C69.2089 68.025 69.8696 69.1666 69.8696 69.9277C69.8696 70.6887 69.2089 71.8303 67.1059 72.8818C65.1034 73.8831 62.2194 74.5508 58.942 74.5508C55.6646 74.5508 52.7806 73.8831 50.7782 72.8818C48.6752 71.8303 48.0145 70.6887 48.0145 69.9277C48.0145 69.1666 48.6752 68.025 50.7782 66.9735C50.9911 66.8671 51.214 66.7644 51.4462 66.6659C50.884 66.3386 50.3524 65.9672 49.8555 65.5569Z" fill="#1C211D"/>
<path fill-rule="evenodd" clip-rule="evenodd" d="M71.4133 55.4492L71.7352 55.523C77.4115 56.8235 82.2497 58.966 85.6748 61.664C89.0989 64.3612 91.1341 67.6344 91.1341 71.1884C91.1341 75.9698 87.4563 80.2386 81.6449 83.2973C75.8219 86.362 67.7948 88.25 58.942 88.25C50.0892 88.25 42.0622 86.362 36.2392 83.2973C30.4277 80.2386 26.75 75.9698 26.75 71.1884C26.75 67.7088 28.701 64.4982 31.996 61.8342C35.2916 59.1698 39.9533 57.0324 45.4404 55.6907L45.7614 55.6122L45.7496 55.9424C45.7295 56.5094 45.7513 57.0704 45.8125 57.6223L45.8365 57.8389L45.6252 57.8923C42.4793 58.6859 39.6525 59.7479 37.255 61.0098C31.7153 63.9254 28.9312 67.6193 28.9312 71.1884C28.9312 74.7576 31.7153 78.4515 37.255 81.3671C42.7062 84.2361 50.3705 86.0689 58.942 86.0689C67.5136 86.0689 75.1779 84.2361 80.629 81.3671C86.1687 78.4515 88.9529 74.7576 88.9529 71.1884C88.9529 67.6193 86.1687 63.9254 80.629 61.0098C78.0607 59.658 74.9998 58.5356 71.582 57.7268L71.3698 57.6766L71.3908 57.4595C71.444 56.9071 71.4579 56.3459 71.4297 55.7791L71.4133 55.4492ZM71.941 56.0842C71.95 56.4896 71.9385 56.8922 71.9074 57.2905C75.2754 58.1035 78.304 59.2211 80.8619 60.5673C86.465 63.5163 89.4529 67.3422 89.4529 71.1884C89.4529 75.0347 86.465 78.8606 80.8619 81.8096C75.3255 84.7235 67.5781 86.5689 58.942 86.5689C50.306 86.5689 42.5585 84.7235 37.0222 81.8096C31.419 78.8606 28.4312 75.0347 28.4312 71.1884C28.4312 67.3422 31.419 63.5163 37.0222 60.5673C39.406 59.3127 42.1985 58.2567 45.2935 57.4608C45.2567 57.0628 45.2394 56.6604 45.2427 56.2549C39.9436 57.5883 35.4707 59.6679 32.3103 62.223C29.0866 64.8294 27.25 67.9106 27.25 71.1884C27.25 75.6918 30.7227 79.8289 36.472 82.8548C42.2098 85.8747 50.1537 87.75 58.942 87.75C67.7303 87.75 75.6743 85.8747 81.412 82.8548C87.1613 79.8289 90.6341 75.6918 90.6341 71.1884C90.6341 67.8406 88.7181 64.6977 85.3654 62.0568C82.077 59.4665 77.4288 57.3794 71.941 56.0842ZM70.5457 60.8233L70.7598 60.8915C73.8224 61.8689 76.3853 63.2193 78.1872 64.827C79.9895 66.4351 81.0471 68.3173 81.0471 70.3478C81.0471 73.5111 78.4893 76.3076 74.5077 78.2984C70.5112 80.2966 65.0075 81.5254 58.942 81.5254C52.8765 81.5254 47.3729 80.2966 43.3764 78.2984C39.3948 76.3076 36.837 73.5111 36.837 70.3478C36.837 68.3857 37.8247 66.5618 39.5174 64.9904C41.2094 63.4195 43.6201 62.0861 46.5127 61.094L46.7258 61.0208L46.8206 61.2253C47.0558 61.7327 47.3266 62.2221 47.6303 62.6896L47.8068 62.9613L47.4992 63.0632C46.3557 63.4417 45.3015 63.8734 44.3518 64.3482C40.6033 66.2224 39.0181 68.455 39.0181 70.3478C39.0181 72.2407 40.6033 74.4732 44.3518 76.3475C47.986 78.1646 53.1417 79.3442 58.942 79.3442C64.7423 79.3442 69.8981 78.1646 73.5323 76.3475C77.2808 74.4732 78.8659 72.2407 78.8659 70.3478C78.8659 68.455 77.2808 66.2224 73.5323 64.3482C72.4255 63.7948 71.1768 63.3001 69.8105 62.8798L69.4998 62.7843L69.6719 62.5085C69.9671 62.0354 70.2291 61.5409 70.455 61.0288L70.5457 60.8233ZM70.8195 61.4363C70.6511 61.7994 70.4653 62.1537 70.263 62.4977C71.5342 62.9041 72.7053 63.3757 73.7559 63.901C77.5599 65.803 79.3659 68.1652 79.3659 70.3478C79.3659 72.5305 77.5599 74.8927 73.7559 76.7947C70.0386 78.6533 64.8031 79.8442 58.942 79.8442C53.0809 79.8442 47.8454 78.6533 44.1282 76.7947C40.3242 74.8927 38.5181 72.5305 38.5181 70.3478C38.5181 68.1652 40.3242 65.803 44.1282 63.901C45.0167 63.4567 45.9913 63.0509 47.0397 62.6905C46.8311 62.3504 46.639 61.9998 46.4641 61.6401C43.7107 62.6087 41.4434 63.8846 39.8576 65.3568C38.2321 66.8658 37.337 68.5659 37.337 70.3478C37.337 73.2197 39.6715 75.887 43.6 77.8512C47.5134 79.8079 52.9373 81.0254 58.942 81.0254C64.9467 81.0254 70.3706 79.8079 74.2841 77.8512C78.2125 75.887 80.5471 73.2197 80.5471 70.3478C80.5471 68.5041 79.5885 66.7474 77.8543 65.2001C76.1605 63.6889 73.7426 62.3932 70.8195 61.4363ZM67.5468 65.043L67.6947 65.1127C70.1589 66.2739 71.8007 67.9681 71.8007 69.9276C71.8007 71.8142 70.2778 73.4549 67.9695 74.609C65.6463 75.7706 62.4542 76.4819 58.942 76.4819C55.4298 76.4819 52.2378 75.7706 49.9145 74.609C47.6062 73.4549 46.0833 71.8142 46.0833 69.9276C46.0833 68.0883 47.5313 66.4827 49.7402 65.3349L49.8871 65.2586L50.0147 65.364C50.5012 65.7657 51.0217 66.1293 51.572 66.4496L52.0036 66.7009L51.5439 66.8959C51.3162 66.9925 51.098 67.093 50.89 67.197C48.816 68.234 48.2645 69.3105 48.2645 69.9276C48.2645 70.5446 48.816 71.6211 50.89 72.6581C52.8509 73.6386 55.695 74.3007 58.942 74.3007C62.189 74.3007 65.0331 73.6386 66.9941 72.6581C69.068 71.6211 69.6196 70.5446 69.6196 69.9276C69.6196 69.3105 69.068 68.234 66.9941 67.197C66.6645 67.0322 66.3095 66.8762 65.9314 66.7307L65.4616 66.5499L65.8895 66.2848C66.4332 65.948 66.946 65.5681 67.4236 65.1506L67.5468 65.043ZM67.6276 65.6349C67.2879 65.9239 66.9316 66.1948 66.5602 66.4461C66.7881 66.5433 67.0075 66.6447 67.2177 66.7498C69.3498 67.8158 70.1196 69.0225 70.1196 69.9276C70.1196 70.8326 69.3498 72.0393 67.2177 73.1053C65.1737 74.1273 62.2498 74.8007 58.942 74.8007C55.6342 74.8007 52.7103 74.1273 50.6664 73.1053C48.5343 72.0393 47.7645 70.8326 47.7645 69.9276C47.7645 69.0225 48.5343 67.8158 50.6664 66.7498C50.7462 66.7099 50.8274 66.6705 50.9098 66.6317C50.5334 66.3921 50.1717 66.1327 49.826 65.8551C47.7622 66.9643 46.5833 68.4079 46.5833 69.9276C46.5833 71.5227 47.883 73.0342 50.1381 74.1618C52.3783 75.2819 55.4906 75.9819 58.942 75.9819C62.3934 75.9819 65.5057 75.2819 67.7459 74.1618C70.0011 73.0342 71.3007 71.5227 71.3007 69.9276C71.3007 68.3038 69.9532 66.7668 67.6276 65.6349Z" fill="#1C211D"/>
</svg>
