<svg width="25" height="24" viewBox="0 0 25 24" fill="none" xmlns="http://www.w3.org/2000/svg">
<g clip-path="url(#clip0_10345_610)">
<path d="M11.3936 20.2933C11.3936 20.7766 11.2017 21.2402 10.8599 21.5819C10.5181 21.9237 10.0544 22.1156 9.5711 22.1156C9.08778 22.1156 8.62422 21.9236 8.28246 21.5819C7.94068 21.2402 7.74873 20.7766 7.74873 20.2933C7.74874 19.6978 8.03359 19.1691 8.47832 18.835C8.89435 18.5225 8.97827 17.9319 8.66574 17.5159C8.35315 17.0999 7.76237 17.016 7.34628 17.3285C6.72506 17.7951 6.25403 18.4545 6.02267 19.2184C5.879 19.1683 5.73982 19.1043 5.60734 19.0269C5.24363 18.8145 4.94287 18.5092 4.73603 18.1424C4.5292 17.7755 4.42365 17.3601 4.43021 16.939C4.43679 16.5179 4.55528 16.106 4.77346 15.7457C4.93309 15.4822 4.95382 15.1571 4.82882 14.8755C4.70381 14.5938 4.44889 14.3911 4.14632 14.3326C3.60429 14.2279 3.11552 13.9377 2.76413 13.512C2.41275 13.0863 2.22059 12.5514 2.22058 11.9995C2.22058 11.4475 2.41275 10.9127 2.76413 10.4869C2.99443 10.2079 3.28399 9.98768 3.60859 9.83917C4.08603 10.3819 4.69672 10.7975 5.38603 11.0415L5.43219 11.0565C5.90998 11.1988 6.42057 10.9428 6.58877 10.4676C6.76237 9.97709 6.50542 9.43879 6.01485 9.26517L5.91869 9.22867C5.44256 9.03663 5.04048 8.69508 4.77407 8.25411L4.77376 8.25349C4.55576 7.89323 4.43745 7.48143 4.43098 7.0604C4.42452 6.63942 4.53001 6.22426 4.7368 5.8575C4.94362 5.49071 5.24433 5.18549 5.60796 4.9731C5.97158 4.76073 6.38514 4.64873 6.80625 4.64876C7.05618 4.64878 7.29592 4.54958 7.47266 4.37288C7.64939 4.19618 7.74873 3.95646 7.74873 3.70656C7.74874 3.22329 7.9407 2.75981 8.28246 2.41808C8.62423 2.07636 9.08777 1.88443 9.5711 1.88441C10.0544 1.88441 10.5181 2.07634 10.8599 2.41808C11.2016 2.7598 11.3936 3.2233 11.3936 3.70656V20.2933ZM24.3359 11.9995C24.3359 11.0097 23.9913 10.0508 23.3613 9.2874C22.9764 8.82113 22.4995 8.4459 21.9653 8.18142C22.0652 7.8274 22.1197 7.46043 22.1254 7.08939C22.137 6.33435 21.9477 5.58979 21.5768 4.93201C21.2059 4.2742 20.6667 3.72675 20.0145 3.34587C19.6073 3.10806 19.1652 2.9407 18.7067 2.84839C18.5491 2.18639 18.2112 1.57464 17.7221 1.08559C17.0269 0.390469 16.0839 9.53674e-06 15.1008 0C14.1176 0 13.1746 0.390457 12.4793 1.08559C12.4299 1.13503 12.3823 1.186 12.3359 1.23787C12.2896 1.186 12.242 1.13503 12.1925 1.08559C11.4973 0.390457 10.5543 0 9.5711 0C8.58793 1.52588e-05 7.64501 0.390471 6.94981 1.08559C6.46073 1.57462 6.12263 2.18628 5.96501 2.84824C5.50656 2.94056 5.06449 3.10808 4.65735 3.34587C4.00522 3.72675 3.46618 4.27421 3.09526 4.93201C2.72435 5.5898 2.53489 6.33434 2.54649 7.08939C2.5522 7.46041 2.60649 7.82741 2.70646 8.18142C2.17226 8.44589 1.69545 8.82116 1.31062 9.2874C0.680568 10.0508 0.335938 11.0097 0.335938 11.9995C0.335947 12.9892 0.680577 13.948 1.31062 14.7114C1.69541 15.1776 2.17202 15.553 2.70615 15.8175C2.60609 16.1715 2.55167 16.5385 2.54588 16.9095C2.53409 17.6648 2.72338 18.4097 3.09434 19.0677C3.46529 19.7257 4.00458 20.2732 4.65689 20.6541C5.06418 20.892 5.50639 21.0596 5.96501 21.1519C6.12265 21.8138 6.46077 22.4254 6.94981 22.9144C7.64501 23.6095 8.58794 24 9.5711 24C10.5543 24 11.4973 23.6095 12.1925 22.9144C12.242 22.865 12.2896 22.8141 12.3359 22.7623C12.3822 22.8141 12.4299 22.865 12.4793 22.9144C13.1746 23.6095 14.1176 24 15.1008 24C16.0839 24 17.0269 23.6095 17.7221 22.9144C18.2111 22.4254 18.5491 21.8138 18.7067 21.1519C19.1654 21.0596 19.6076 20.892 20.015 20.6541C20.6673 20.2732 21.2066 19.7257 21.5775 19.0677C21.9485 18.4097 22.1378 17.6648 22.126 16.9095C22.1202 16.5385 22.0656 16.1715 21.9656 15.8175C22.4998 15.553 22.9764 15.1776 23.3613 14.7114C23.9913 13.948 24.3359 12.9892 24.3359 11.9995ZM13.2783 3.70656C13.2783 3.2233 13.4702 2.7598 13.812 2.41808C14.1538 2.07634 14.6174 1.88441 15.1008 1.88441C15.5841 1.88442 16.0476 2.07635 16.3894 2.41808C16.7312 2.75981 16.9231 3.22329 16.9231 3.70656C16.9231 4.30204 16.6383 4.83073 16.1936 5.1648C15.7775 5.47734 15.6936 6.06806 16.0061 6.4841C16.3187 6.90014 16.9095 6.98404 17.3256 6.6715C17.9467 6.20494 18.4176 5.54568 18.649 4.78187C18.7926 4.832 18.9316 4.89581 19.0639 4.9731C19.4275 5.18549 19.7282 5.4907 19.9351 5.8575C20.1419 6.22426 20.2474 6.63942 20.2409 7.0604C20.2344 7.48142 20.1161 7.89323 19.8981 8.25349C19.7386 8.5171 19.7182 8.84204 19.8432 9.12362C19.9683 9.40521 20.2232 9.60789 20.5257 9.66634C21.0677 9.77107 21.5564 10.0612 21.9077 10.4869C22.2591 10.9127 22.4513 11.4475 22.4513 11.9995C22.4513 12.5514 22.2591 13.0863 21.9077 13.512C21.6773 13.7912 21.3875 14.0116 21.0627 14.1601C20.585 13.6179 19.9745 13.2027 19.2854 12.9593C18.7947 12.786 18.2563 13.0433 18.0829 13.5339C17.9096 14.0245 18.1668 14.5627 18.6575 14.7361C19.1753 14.919 19.6138 15.2758 19.8983 15.7456L19.8984 15.7457C20.1166 16.106 20.2351 16.5179 20.2417 16.939C20.2482 17.3601 20.1427 17.7755 19.9358 18.1424C19.729 18.5092 19.4282 18.8145 19.0645 19.0269C18.7008 19.2393 18.287 19.3512 17.8658 19.3511C17.6158 19.351 17.3761 19.4503 17.1994 19.627C17.0226 19.8037 16.9232 20.0434 16.9231 20.2933C16.9231 20.7766 16.7312 21.2402 16.3894 21.5819C16.0476 21.9236 15.5841 22.1156 15.1008 22.1156C14.6174 22.1156 14.1538 21.9237 13.812 21.5819C13.4702 21.2402 13.2783 20.7766 13.2783 20.2933V3.70656Z" fill="white"/>
</g>
<defs>
<clipPath id="clip0_10345_610">
<rect width="24" height="24" fill="white" transform="translate(0.5)"/>
</clipPath>
</defs>
</svg>
