<svg width="152" height="152" viewBox="0 0 152 152" fill="none" xmlns="http://www.w3.org/2000/svg">
<path fill-rule="evenodd" clip-rule="evenodd" d="M32.7984 119.203C25.6929 112.098 20.4494 103.35 17.5323 93.7346C14.6151 84.1191 14.1145 73.9326 16.0746 64.0774C18.0348 54.2223 22.3952 45.0026 28.7697 37.2352C35.1442 29.4678 43.336 23.3924 52.6193 19.5472C61.9027 15.702 71.9911 14.2057 81.9909 15.1908C91.9908 16.1759 101.593 19.6121 109.948 25.1948C118.302 30.7776 125.151 38.3347 129.888 47.1967C134.624 56.0586 137.101 65.9519 137.101 76.0001C137.101 79.1164 135.863 82.1051 133.659 84.3086C131.456 86.5122 128.467 87.7501 125.351 87.7501C122.234 87.7501 119.246 86.5122 117.042 84.3086C114.839 82.1051 113.601 79.1164 113.601 76.0001C113.6 66.9062 110.303 58.1207 104.321 51.2711C98.3395 44.4216 90.0779 39.972 81.0669 38.7467C72.0559 37.5214 62.9062 39.6034 55.3126 44.6071C47.719 49.6107 42.1961 57.1969 39.767 65.9604C37.3379 74.7239 38.1672 84.0708 42.1012 92.2697C46.0353 100.469 52.8075 106.964 61.1634 110.553C69.5194 114.141 78.8927 114.58 87.5473 111.787C96.2018 108.994 103.551 103.16 108.233 95.3641C111.962 98.6594 116.563 100.808 121.484 101.553C126.404 102.297 131.435 101.606 135.972 99.5609C140.509 97.5162 144.359 94.2055 147.06 90.0261C149.762 85.8468 151.2 80.9765 151.201 76.0001C151.2 58.6022 145.167 41.7428 134.13 28.2944C123.092 14.8461 107.733 5.64089 90.6691 2.2473C73.6054 -1.14628 55.8929 1.48172 40.5496 9.68352C25.2063 17.8853 13.1815 31.1535 6.52416 47.2272C-0.133217 63.301 -1.0113 81.1858 4.03954 97.8344C9.09037 114.483 19.7576 128.865 34.2237 138.531C48.6898 148.196 66.0597 152.546 83.3737 150.841C100.688 149.135 116.875 141.478 129.177 129.176C130.422 127.839 131.1 126.072 131.068 124.245C131.035 122.419 130.296 120.676 129.004 119.385C127.712 118.093 125.97 117.353 124.143 117.321C122.317 117.289 120.549 117.967 119.213 119.212C113.539 124.886 106.803 129.388 99.3893 132.459C91.9758 135.53 84.0299 137.111 76.0055 137.111C67.981 137.111 60.0352 135.53 52.6217 132.459C45.2081 129.388 38.4722 124.886 32.7984 119.212V119.203ZM76.0008 52.5001C69.7682 52.5001 63.7909 54.976 59.3838 59.3831C54.9767 63.7902 52.5008 69.7675 52.5008 76.0001C52.5008 82.2327 54.9767 88.21 59.3838 92.6171C63.7909 97.0242 69.7682 99.5001 76.0008 99.5001C82.2334 99.5001 88.2107 97.0242 92.6178 92.6171C97.0249 88.21 99.5008 82.2327 99.5008 76.0001C99.5008 69.7675 97.0249 63.7902 92.6178 59.3831C88.2107 54.976 82.2334 52.5001 76.0008 52.5001Z" fill="#9EA09F"/>
</svg>
