<svg width="40" height="40" viewBox="0 0 40 40" fill="none" xmlns="http://www.w3.org/2000/svg">
<path fill-rule="evenodd" clip-rule="evenodd" d="M4 9.5C4 9.10218 4.15804 8.72064 4.43934 8.43934C4.72064 8.15804 5.10218 8 5.5 8H34.5C34.8978 8 35.2794 8.15804 35.5607 8.43934C35.842 8.72064 36 9.10218 36 9.5C36 9.89782 35.842 10.2794 35.5607 10.5607C35.2794 10.842 34.8978 11 34.5 11H5.5C5.10218 11 4.72064 10.842 4.43934 10.5607C4.15804 10.2794 4 9.89782 4 9.5ZM4 20C4 19.6022 4.15804 19.2206 4.43934 18.9393C4.72064 18.658 5.10218 18.5 5.5 18.5H34.5C34.8978 18.5 35.2794 18.658 35.5607 18.9393C35.842 19.2206 36 19.6022 36 20C36 20.3978 35.842 20.7794 35.5607 21.0607C35.2794 21.342 34.8978 21.5 34.5 21.5H5.5C5.10218 21.5 4.72064 21.342 4.43934 21.0607C4.15804 20.7794 4 20.3978 4 20ZM4 30.5C4 30.1022 4.15804 29.7206 4.43934 29.4393C4.72064 29.158 5.10218 29 5.5 29H34.5C34.8978 29 35.2794 29.158 35.5607 29.4393C35.842 29.7206 36 30.1022 36 30.5C36 30.8978 35.842 31.2794 35.5607 31.5607C35.2794 31.842 34.8978 32 34.5 32H5.5C5.10218 32 4.72064 31.842 4.43934 31.5607C4.15804 31.2794 4 30.8978 4 30.5Z" fill="white"/>
</svg>
