<svg width="154" height="154" viewBox="0 0 154 154" fill="none" xmlns="http://www.w3.org/2000/svg">
<path d="M77 147.5C92.6275 147.499 107.812 142.308 120.17 132.742C132.527 123.176 141.358 109.777 145.275 94.6485M77 147.5C61.3726 147.499 46.1879 142.308 33.8303 132.742C21.4727 123.176 12.642 109.777 8.72471 94.6485M77 147.5C96.4659 147.5 112.25 115.932 112.25 77C112.25 38.0683 96.4659 6.5 77 6.5M77 147.5C57.5342 147.5 41.75 115.932 41.75 77C41.75 38.0683 57.5342 6.5 77 6.5M145.275 94.6485C146.725 89.0085 147.5 83.0943 147.5 77C147.519 64.8749 144.397 52.9517 138.437 42.3923M145.275 94.6485C124.388 106.235 100.886 112.294 77 112.25C53.1139 112.294 29.6124 106.235 8.72471 94.6485M8.72471 94.6485C7.24099 88.8832 6.49349 82.9532 6.50004 77C6.50004 64.4275 9.79004 52.6148 15.5632 42.3923M77 6.5C89.5034 6.49722 101.783 9.81976 112.579 16.127C123.375 22.4342 132.299 31.4991 138.437 42.3923M77 6.5C64.4966 6.49722 52.2174 9.81976 41.4214 16.127C30.6254 22.4342 21.701 31.4991 15.5632 42.3923M138.437 42.3923C121.382 57.1673 99.5646 65.2846 77 65.25C53.5157 65.25 32.0367 56.6333 15.5632 42.3923" stroke="#888A88" stroke-width="12" stroke-linecap="round" stroke-linejoin="round"/>
</svg>
